<mxfile host="Electron" agent="Mozilla/5.0 (Windows NT 10.0; Win64; x64) AppleWebKit/537.36 (KHTML, like Gecko) draw.io/27.0.5 Chrome/134.0.6998.205 Electron/35.3.0 Safari/537.36" version="27.0.5" pages="5">
  <diagram name="Case 1 Слова наоборот" id="OODP_4cJ1ccSpd66ghAZ">
    <mxGraphModel dx="1426" dy="893" grid="1" gridSize="10" guides="1" tooltips="1" connect="1" arrows="1" fold="1" page="1" pageScale="1" pageWidth="827" pageHeight="1169" math="0" shadow="0">
      <root>
        <mxCell id="0" />
        <mxCell id="1" parent="0" />
        <mxCell id="PYd_pfsbyIrPunEL7UD9-5" value="" style="edgeStyle=orthogonalEdgeStyle;rounded=0;orthogonalLoop=1;jettySize=auto;html=1;" edge="1" parent="1" source="PYd_pfsbyIrPunEL7UD9-3" target="PYd_pfsbyIrPunEL7UD9-4">
          <mxGeometry relative="1" as="geometry" />
        </mxCell>
        <mxCell id="PYd_pfsbyIrPunEL7UD9-1" value="Начало" style="rounded=1;whiteSpace=wrap;html=1;" vertex="1" parent="1">
          <mxGeometry x="360" y="90" width="120" height="50" as="geometry" />
        </mxCell>
        <mxCell id="PYd_pfsbyIrPunEL7UD9-16" value="" style="edgeStyle=orthogonalEdgeStyle;rounded=0;orthogonalLoop=1;jettySize=auto;html=1;" edge="1" parent="1" source="PYd_pfsbyIrPunEL7UD9-4" target="PYd_pfsbyIrPunEL7UD9-10">
          <mxGeometry relative="1" as="geometry" />
        </mxCell>
        <mxCell id="PYd_pfsbyIrPunEL7UD9-4" value="input" style="rounded=0;whiteSpace=wrap;html=1;" vertex="1" parent="1">
          <mxGeometry x="360" y="250" width="120" height="40" as="geometry" />
        </mxCell>
        <mxCell id="PYd_pfsbyIrPunEL7UD9-6" value="" style="edgeStyle=orthogonalEdgeStyle;rounded=0;orthogonalLoop=1;jettySize=auto;html=1;" edge="1" parent="1" source="PYd_pfsbyIrPunEL7UD9-1" target="PYd_pfsbyIrPunEL7UD9-3">
          <mxGeometry relative="1" as="geometry">
            <mxPoint x="420" y="140" as="sourcePoint" />
            <mxPoint x="414" y="250" as="targetPoint" />
          </mxGeometry>
        </mxCell>
        <mxCell id="PYd_pfsbyIrPunEL7UD9-3" value="Приглашение к вводу" style="shape=parallelogram;perimeter=parallelogramPerimeter;whiteSpace=wrap;html=1;fixedSize=1;" vertex="1" parent="1">
          <mxGeometry x="360" y="170" width="120" height="50" as="geometry" />
        </mxCell>
        <mxCell id="PYd_pfsbyIrPunEL7UD9-7" value="input -&amp;nbsp; переменная с вводом пользователя" style="text;html=1;align=left;verticalAlign=middle;whiteSpace=wrap;rounded=0;" vertex="1" parent="1">
          <mxGeometry x="490" y="255" width="130" height="30" as="geometry" />
        </mxCell>
        <mxCell id="PYd_pfsbyIrPunEL7UD9-8" value="words = input.Split(input)" style="rounded=0;whiteSpace=wrap;html=1;" vertex="1" parent="1">
          <mxGeometry x="360" y="320" width="120" height="40" as="geometry" />
        </mxCell>
        <mxCell id="PYd_pfsbyIrPunEL7UD9-17" value="" style="edgeStyle=orthogonalEdgeStyle;rounded=0;orthogonalLoop=1;jettySize=auto;html=1;" edge="1" parent="1" source="PYd_pfsbyIrPunEL7UD9-10" target="PYd_pfsbyIrPunEL7UD9-11">
          <mxGeometry relative="1" as="geometry" />
        </mxCell>
        <mxCell id="PYd_pfsbyIrPunEL7UD9-20" style="edgeStyle=orthogonalEdgeStyle;rounded=0;orthogonalLoop=1;jettySize=auto;html=1;exitX=1;exitY=0.5;exitDx=0;exitDy=0;" edge="1" parent="1" source="PYd_pfsbyIrPunEL7UD9-10">
          <mxGeometry relative="1" as="geometry">
            <mxPoint x="400" y="720" as="targetPoint" />
            <Array as="points">
              <mxPoint x="690" y="430" />
              <mxPoint x="690" y="680" />
              <mxPoint x="401" y="680" />
            </Array>
          </mxGeometry>
        </mxCell>
        <mxCell id="PYd_pfsbyIrPunEL7UD9-10" value="foreach (word in words)" style="shape=hexagon;perimeter=hexagonPerimeter2;whiteSpace=wrap;html=1;fixedSize=1;" vertex="1" parent="1">
          <mxGeometry x="330" y="400" width="180" height="60" as="geometry" />
        </mxCell>
        <mxCell id="PYd_pfsbyIrPunEL7UD9-18" value="" style="edgeStyle=orthogonalEdgeStyle;rounded=0;orthogonalLoop=1;jettySize=auto;html=1;" edge="1" parent="1" source="PYd_pfsbyIrPunEL7UD9-11" target="PYd_pfsbyIrPunEL7UD9-12">
          <mxGeometry relative="1" as="geometry" />
        </mxCell>
        <mxCell id="PYd_pfsbyIrPunEL7UD9-11" value="chars = word.ToCharArray()&lt;div&gt;Array.Reverse(chars)&lt;br&gt;&lt;/div&gt;" style="rounded=0;whiteSpace=wrap;html=1;" vertex="1" parent="1">
          <mxGeometry x="337" y="500" width="166" height="60" as="geometry" />
        </mxCell>
        <mxCell id="PYd_pfsbyIrPunEL7UD9-19" style="edgeStyle=orthogonalEdgeStyle;rounded=0;orthogonalLoop=1;jettySize=auto;html=1;entryX=0;entryY=0.5;entryDx=0;entryDy=0;" edge="1" parent="1" source="PYd_pfsbyIrPunEL7UD9-12" target="PYd_pfsbyIrPunEL7UD9-10">
          <mxGeometry relative="1" as="geometry">
            <Array as="points">
              <mxPoint x="220" y="625" />
              <mxPoint x="220" y="430" />
            </Array>
          </mxGeometry>
        </mxCell>
        <mxCell id="PYd_pfsbyIrPunEL7UD9-12" value="Вывод chars" style="shape=parallelogram;perimeter=parallelogramPerimeter;whiteSpace=wrap;html=1;fixedSize=1;" vertex="1" parent="1">
          <mxGeometry x="340" y="600" width="160" height="50" as="geometry" />
        </mxCell>
        <mxCell id="PYd_pfsbyIrPunEL7UD9-15" value="&lt;span style=&quot;text-wrap-mode: nowrap;&quot;&gt;Вывод слова наоборот&lt;/span&gt;" style="text;html=1;align=center;verticalAlign=middle;whiteSpace=wrap;rounded=0;" vertex="1" parent="1">
          <mxGeometry x="503" y="600" width="130" height="50" as="geometry" />
        </mxCell>
        <mxCell id="PYd_pfsbyIrPunEL7UD9-21" value="Конец" style="rounded=1;whiteSpace=wrap;html=1;" vertex="1" parent="1">
          <mxGeometry x="340" y="720" width="120" height="50" as="geometry" />
        </mxCell>
      </root>
    </mxGraphModel>
  </diagram>
  <diagram id="Ix9X94asuVVr00StnTRe" name="Case 2 Заменить цифры на текст">
    <mxGraphModel dx="1426" dy="893" grid="1" gridSize="10" guides="1" tooltips="1" connect="1" arrows="1" fold="1" page="1" pageScale="1" pageWidth="827" pageHeight="1169" math="0" shadow="0">
      <root>
        <mxCell id="0" />
        <mxCell id="1" parent="0" />
        <mxCell id="YDApo1KAbW26q2nNfFNr-3" value="" style="edgeStyle=orthogonalEdgeStyle;rounded=0;orthogonalLoop=1;jettySize=auto;html=1;" edge="1" parent="1" source="YDApo1KAbW26q2nNfFNr-1" target="YDApo1KAbW26q2nNfFNr-2">
          <mxGeometry relative="1" as="geometry" />
        </mxCell>
        <mxCell id="YDApo1KAbW26q2nNfFNr-1" value="Начало" style="rounded=1;whiteSpace=wrap;html=1;" vertex="1" parent="1">
          <mxGeometry x="370" y="120" width="120" height="40" as="geometry" />
        </mxCell>
        <mxCell id="YDApo1KAbW26q2nNfFNr-5" value="" style="edgeStyle=orthogonalEdgeStyle;rounded=0;orthogonalLoop=1;jettySize=auto;html=1;" edge="1" parent="1" source="YDApo1KAbW26q2nNfFNr-2" target="YDApo1KAbW26q2nNfFNr-4">
          <mxGeometry relative="1" as="geometry" />
        </mxCell>
        <mxCell id="YDApo1KAbW26q2nNfFNr-2" value="Приглашение&amp;nbsp;&lt;div&gt;ко вводу&lt;/div&gt;" style="shape=parallelogram;perimeter=parallelogramPerimeter;whiteSpace=wrap;html=1;fixedSize=1;" vertex="1" parent="1">
          <mxGeometry x="362" y="190" width="136" height="50" as="geometry" />
        </mxCell>
        <mxCell id="YDApo1KAbW26q2nNfFNr-9" value="" style="edgeStyle=orthogonalEdgeStyle;rounded=0;orthogonalLoop=1;jettySize=auto;html=1;" edge="1" parent="1" source="YDApo1KAbW26q2nNfFNr-4" target="YDApo1KAbW26q2nNfFNr-8">
          <mxGeometry relative="1" as="geometry" />
        </mxCell>
        <mxCell id="YDApo1KAbW26q2nNfFNr-4" value="input" style="rounded=0;whiteSpace=wrap;html=1;" vertex="1" parent="1">
          <mxGeometry x="370" y="270" width="120" height="40" as="geometry" />
        </mxCell>
        <mxCell id="YDApo1KAbW26q2nNfFNr-7" value="Ввод пользователя" style="text;html=1;align=left;verticalAlign=middle;whiteSpace=wrap;rounded=0;" vertex="1" parent="1">
          <mxGeometry x="498" y="270" width="92" height="40" as="geometry" />
        </mxCell>
        <mxCell id="YDApo1KAbW26q2nNfFNr-12" value="" style="edgeStyle=orthogonalEdgeStyle;rounded=0;orthogonalLoop=1;jettySize=auto;html=1;" edge="1" parent="1" source="YDApo1KAbW26q2nNfFNr-8" target="YDApo1KAbW26q2nNfFNr-10">
          <mxGeometry relative="1" as="geometry" />
        </mxCell>
        <mxCell id="YDApo1KAbW26q2nNfFNr-8" value="Словарь: &#39;Цифра&#39; : &quot;Текстовая запись цифры&quot;" style="rounded=0;whiteSpace=wrap;html=1;" vertex="1" parent="1">
          <mxGeometry x="290" y="340" width="280" height="40" as="geometry" />
        </mxCell>
        <mxCell id="YDApo1KAbW26q2nNfFNr-14" value="" style="edgeStyle=orthogonalEdgeStyle;rounded=0;orthogonalLoop=1;jettySize=auto;html=1;" edge="1" parent="1" source="YDApo1KAbW26q2nNfFNr-10" target="YDApo1KAbW26q2nNfFNr-13">
          <mxGeometry relative="1" as="geometry" />
        </mxCell>
        <mxCell id="YDApo1KAbW26q2nNfFNr-10" value="Инициализация result" style="rounded=0;whiteSpace=wrap;html=1;" vertex="1" parent="1">
          <mxGeometry x="370" y="410" width="120" height="40" as="geometry" />
        </mxCell>
        <mxCell id="YDApo1KAbW26q2nNfFNr-11" value="Принимает на вход последовательность символов текста" style="text;html=1;align=left;verticalAlign=middle;whiteSpace=wrap;rounded=0;" vertex="1" parent="1">
          <mxGeometry x="510" y="417.5" width="156" height="25" as="geometry" />
        </mxCell>
        <mxCell id="YDApo1KAbW26q2nNfFNr-16" value="" style="edgeStyle=orthogonalEdgeStyle;rounded=0;orthogonalLoop=1;jettySize=auto;html=1;" edge="1" parent="1" source="YDApo1KAbW26q2nNfFNr-13" target="YDApo1KAbW26q2nNfFNr-15">
          <mxGeometry relative="1" as="geometry" />
        </mxCell>
        <mxCell id="YDApo1KAbW26q2nNfFNr-27" style="edgeStyle=orthogonalEdgeStyle;rounded=0;orthogonalLoop=1;jettySize=auto;html=1;" edge="1" parent="1" source="YDApo1KAbW26q2nNfFNr-13">
          <mxGeometry relative="1" as="geometry">
            <mxPoint x="430" y="960" as="targetPoint" />
            <Array as="points">
              <mxPoint x="690" y="510" />
              <mxPoint x="690" y="900" />
              <mxPoint x="430" y="900" />
            </Array>
          </mxGeometry>
        </mxCell>
        <mxCell id="YDApo1KAbW26q2nNfFNr-13" value="foreach char&lt;font style=&quot;color: rgb(255, 6, 6);&quot;&gt; c &lt;/font&gt;in input" style="shape=hexagon;perimeter=hexagonPerimeter2;whiteSpace=wrap;html=1;fixedSize=1;" vertex="1" parent="1">
          <mxGeometry x="335" y="480" width="190" height="60" as="geometry" />
        </mxCell>
        <mxCell id="YDApo1KAbW26q2nNfFNr-18" value="" style="edgeStyle=orthogonalEdgeStyle;rounded=0;orthogonalLoop=1;jettySize=auto;html=1;" edge="1" parent="1" source="YDApo1KAbW26q2nNfFNr-15" target="YDApo1KAbW26q2nNfFNr-17">
          <mxGeometry relative="1" as="geometry">
            <Array as="points">
              <mxPoint x="275" y="620" />
            </Array>
          </mxGeometry>
        </mxCell>
        <mxCell id="YDApo1KAbW26q2nNfFNr-20" style="edgeStyle=orthogonalEdgeStyle;rounded=0;orthogonalLoop=1;jettySize=auto;html=1;entryX=0.5;entryY=0;entryDx=0;entryDy=0;" edge="1" parent="1" source="YDApo1KAbW26q2nNfFNr-15" target="YDApo1KAbW26q2nNfFNr-19">
          <mxGeometry relative="1" as="geometry">
            <Array as="points">
              <mxPoint x="591" y="620" />
            </Array>
          </mxGeometry>
        </mxCell>
        <mxCell id="YDApo1KAbW26q2nNfFNr-15" value="if (&lt;font style=&quot;color: rgb(255, 6, 6);&quot;&gt;&lt;b&gt;c&lt;/b&gt; &lt;/font&gt;есть ключ со значением)" style="rhombus;whiteSpace=wrap;html=1;" vertex="1" parent="1">
          <mxGeometry x="328.75" y="580" width="202.5" height="80" as="geometry" />
        </mxCell>
        <mxCell id="YDApo1KAbW26q2nNfFNr-25" style="edgeStyle=orthogonalEdgeStyle;rounded=0;orthogonalLoop=1;jettySize=auto;html=1;" edge="1" parent="1" source="YDApo1KAbW26q2nNfFNr-17">
          <mxGeometry relative="1" as="geometry">
            <mxPoint x="440" y="840" as="targetPoint" />
            <Array as="points">
              <mxPoint x="275" y="790" />
              <mxPoint x="441" y="790" />
            </Array>
          </mxGeometry>
        </mxCell>
        <mxCell id="YDApo1KAbW26q2nNfFNr-17" value="result += значение словаря" style="rounded=0;whiteSpace=wrap;html=1;" vertex="1" parent="1">
          <mxGeometry x="215" y="700" width="120" height="60" as="geometry" />
        </mxCell>
        <mxCell id="YDApo1KAbW26q2nNfFNr-24" style="edgeStyle=orthogonalEdgeStyle;rounded=0;orthogonalLoop=1;jettySize=auto;html=1;" edge="1" parent="1" source="YDApo1KAbW26q2nNfFNr-19">
          <mxGeometry relative="1" as="geometry">
            <mxPoint x="440" y="840" as="targetPoint" />
            <Array as="points">
              <mxPoint x="591" y="790" />
              <mxPoint x="441" y="790" />
            </Array>
          </mxGeometry>
        </mxCell>
        <mxCell id="YDApo1KAbW26q2nNfFNr-19" value="result += &lt;font style=&quot;color: rgb(255, 6, 6);&quot;&gt;с&lt;/font&gt;" style="rounded=0;whiteSpace=wrap;html=1;" vertex="1" parent="1">
          <mxGeometry x="531.25" y="700" width="120" height="60" as="geometry" />
        </mxCell>
        <mxCell id="YDApo1KAbW26q2nNfFNr-21" value="Возвращаем цифру" style="text;html=1;align=center;verticalAlign=middle;whiteSpace=wrap;rounded=0;" vertex="1" parent="1">
          <mxGeometry x="350" y="715" width="60" height="30" as="geometry" />
        </mxCell>
        <mxCell id="YDApo1KAbW26q2nNfFNr-22" value="Да" style="text;html=1;align=center;verticalAlign=middle;whiteSpace=wrap;rounded=0;fontColor=#FF0606;" vertex="1" parent="1">
          <mxGeometry x="268.75" y="585" width="60" height="30" as="geometry" />
        </mxCell>
        <mxCell id="YDApo1KAbW26q2nNfFNr-23" value="Нет" style="text;html=1;align=center;verticalAlign=middle;whiteSpace=wrap;rounded=0;fontColor=#FF0606;" vertex="1" parent="1">
          <mxGeometry x="530" y="585" width="60" height="30" as="geometry" />
        </mxCell>
        <mxCell id="YDApo1KAbW26q2nNfFNr-26" value="" style="endArrow=classic;html=1;rounded=0;entryX=0;entryY=0.5;entryDx=0;entryDy=0;" edge="1" parent="1" target="YDApo1KAbW26q2nNfFNr-13">
          <mxGeometry width="50" height="50" relative="1" as="geometry">
            <mxPoint x="440" y="840" as="sourcePoint" />
            <mxPoint x="440" y="840" as="targetPoint" />
            <Array as="points">
              <mxPoint x="160" y="840" />
              <mxPoint x="160" y="510" />
            </Array>
          </mxGeometry>
        </mxCell>
        <mxCell id="YDApo1KAbW26q2nNfFNr-28" value="Конец" style="rounded=1;whiteSpace=wrap;html=1;" vertex="1" parent="1">
          <mxGeometry x="370" y="1050" width="120" height="40" as="geometry" />
        </mxCell>
        <mxCell id="YDApo1KAbW26q2nNfFNr-30" value="" style="edgeStyle=orthogonalEdgeStyle;rounded=0;orthogonalLoop=1;jettySize=auto;html=1;" edge="1" parent="1" source="YDApo1KAbW26q2nNfFNr-29" target="YDApo1KAbW26q2nNfFNr-28">
          <mxGeometry relative="1" as="geometry" />
        </mxCell>
        <mxCell id="YDApo1KAbW26q2nNfFNr-29" value="Вывод result" style="shape=parallelogram;perimeter=parallelogramPerimeter;whiteSpace=wrap;html=1;fixedSize=1;" vertex="1" parent="1">
          <mxGeometry x="362" y="960" width="136" height="50" as="geometry" />
        </mxCell>
      </root>
    </mxGraphModel>
  </diagram>
  <diagram id="0gQRgl0o90DzSqSdjdu4" name="Case 3 Подстрока">
    <mxGraphModel dx="1426" dy="893" grid="1" gridSize="10" guides="1" tooltips="1" connect="1" arrows="1" fold="1" page="1" pageScale="1" pageWidth="827" pageHeight="1169" math="0" shadow="0">
      <root>
        <mxCell id="0" />
        <mxCell id="1" parent="0" />
        <mxCell id="8heaPdWIyd-7Ec6Da3x7-4" value="" style="edgeStyle=orthogonalEdgeStyle;rounded=0;orthogonalLoop=1;jettySize=auto;html=1;" edge="1" parent="1" source="8heaPdWIyd-7Ec6Da3x7-1" target="8heaPdWIyd-7Ec6Da3x7-3">
          <mxGeometry relative="1" as="geometry" />
        </mxCell>
        <mxCell id="8heaPdWIyd-7Ec6Da3x7-1" value="Начало" style="rounded=1;whiteSpace=wrap;html=1;" vertex="1" parent="1">
          <mxGeometry x="405" y="70" width="90" height="40" as="geometry" />
        </mxCell>
        <mxCell id="8heaPdWIyd-7Ec6Da3x7-6" value="" style="edgeStyle=orthogonalEdgeStyle;rounded=0;orthogonalLoop=1;jettySize=auto;html=1;" edge="1" parent="1" source="8heaPdWIyd-7Ec6Da3x7-3" target="8heaPdWIyd-7Ec6Da3x7-5">
          <mxGeometry relative="1" as="geometry" />
        </mxCell>
        <mxCell id="8heaPdWIyd-7Ec6Da3x7-3" value="Подаются подстроки: &lt;br&gt;str1, str2, str3, str4" style="rounded=0;whiteSpace=wrap;html=1;" vertex="1" parent="1">
          <mxGeometry x="382.5" y="140" width="135" height="60" as="geometry" />
        </mxCell>
        <mxCell id="8heaPdWIyd-7Ec6Da3x7-11" value="" style="edgeStyle=orthogonalEdgeStyle;rounded=0;orthogonalLoop=1;jettySize=auto;html=1;" edge="1" parent="1" source="8heaPdWIyd-7Ec6Da3x7-5" target="8heaPdWIyd-7Ec6Da3x7-7">
          <mxGeometry relative="1" as="geometry" />
        </mxCell>
        <mxCell id="8heaPdWIyd-7Ec6Da3x7-5" value="Вывод str1, str2, str3, str4" style="shape=parallelogram;perimeter=parallelogramPerimeter;whiteSpace=wrap;html=1;fixedSize=1;" vertex="1" parent="1">
          <mxGeometry x="355" y="240" width="190" height="60" as="geometry" />
        </mxCell>
        <mxCell id="8heaPdWIyd-7Ec6Da3x7-12" value="" style="edgeStyle=orthogonalEdgeStyle;rounded=0;orthogonalLoop=1;jettySize=auto;html=1;" edge="1" parent="1" source="8heaPdWIyd-7Ec6Da3x7-7" target="8heaPdWIyd-7Ec6Da3x7-8">
          <mxGeometry relative="1" as="geometry" />
        </mxCell>
        <mxCell id="8heaPdWIyd-7Ec6Da3x7-7" value="pattern принимает ввод пользователя подстроку" style="rounded=0;whiteSpace=wrap;html=1;" vertex="1" parent="1">
          <mxGeometry x="382.5" y="340" width="135" height="60" as="geometry" />
        </mxCell>
        <mxCell id="8heaPdWIyd-7Ec6Da3x7-16" value="" style="edgeStyle=orthogonalEdgeStyle;rounded=0;orthogonalLoop=1;jettySize=auto;html=1;" edge="1" parent="1" source="8heaPdWIyd-7Ec6Da3x7-8" target="8heaPdWIyd-7Ec6Da3x7-15">
          <mxGeometry relative="1" as="geometry" />
        </mxCell>
        <mxCell id="8heaPdWIyd-7Ec6Da3x7-8" value="text список с элементами строк" style="rounded=0;whiteSpace=wrap;html=1;" vertex="1" parent="1">
          <mxGeometry x="390" y="430" width="120" height="60" as="geometry" />
        </mxCell>
        <mxCell id="8heaPdWIyd-7Ec6Da3x7-21" value="" style="edgeStyle=orthogonalEdgeStyle;rounded=0;orthogonalLoop=1;jettySize=auto;html=1;" edge="1" parent="1" source="8heaPdWIyd-7Ec6Da3x7-13" target="8heaPdWIyd-7Ec6Da3x7-18">
          <mxGeometry relative="1" as="geometry" />
        </mxCell>
        <mxCell id="8heaPdWIyd-7Ec6Da3x7-26" style="edgeStyle=orthogonalEdgeStyle;rounded=0;orthogonalLoop=1;jettySize=auto;html=1;" edge="1" parent="1" source="8heaPdWIyd-7Ec6Da3x7-13">
          <mxGeometry relative="1" as="geometry">
            <mxPoint x="450" y="1030" as="targetPoint" />
            <Array as="points">
              <mxPoint x="620" y="650" />
              <mxPoint x="620" y="980" />
              <mxPoint x="450" y="980" />
            </Array>
          </mxGeometry>
        </mxCell>
        <mxCell id="8heaPdWIyd-7Ec6Da3x7-13" value="while(count &amp;lt;= text.Count-1)" style="rhombus;whiteSpace=wrap;html=1;" vertex="1" parent="1">
          <mxGeometry x="330" y="610" width="240" height="80" as="geometry" />
        </mxCell>
        <mxCell id="8heaPdWIyd-7Ec6Da3x7-17" value="" style="edgeStyle=orthogonalEdgeStyle;rounded=0;orthogonalLoop=1;jettySize=auto;html=1;" edge="1" parent="1" source="8heaPdWIyd-7Ec6Da3x7-15" target="8heaPdWIyd-7Ec6Da3x7-13">
          <mxGeometry relative="1" as="geometry" />
        </mxCell>
        <mxCell id="8heaPdWIyd-7Ec6Da3x7-15" value="Инициализация&lt;br&gt;count = 0" style="rounded=0;whiteSpace=wrap;html=1;" vertex="1" parent="1">
          <mxGeometry x="390" y="520" width="120" height="60" as="geometry" />
        </mxCell>
        <mxCell id="8heaPdWIyd-7Ec6Da3x7-20" value="" style="edgeStyle=orthogonalEdgeStyle;rounded=0;orthogonalLoop=1;jettySize=auto;html=1;" edge="1" parent="1" source="8heaPdWIyd-7Ec6Da3x7-18" target="8heaPdWIyd-7Ec6Da3x7-19">
          <mxGeometry relative="1" as="geometry" />
        </mxCell>
        <mxCell id="8heaPdWIyd-7Ec6Da3x7-18" value="if (в text[count] есть pattern)" style="rhombus;whiteSpace=wrap;html=1;" vertex="1" parent="1">
          <mxGeometry x="330" y="730" width="240" height="80" as="geometry" />
        </mxCell>
        <mxCell id="8heaPdWIyd-7Ec6Da3x7-24" value="" style="edgeStyle=orthogonalEdgeStyle;rounded=0;orthogonalLoop=1;jettySize=auto;html=1;" edge="1" parent="1" source="8heaPdWIyd-7Ec6Da3x7-19" target="8heaPdWIyd-7Ec6Da3x7-23">
          <mxGeometry relative="1" as="geometry" />
        </mxCell>
        <mxCell id="8heaPdWIyd-7Ec6Da3x7-19" value="Вывод text[count],&lt;br&gt;в которой есть pattern" style="shape=parallelogram;perimeter=parallelogramPerimeter;whiteSpace=wrap;html=1;fixedSize=1;" vertex="1" parent="1">
          <mxGeometry x="363.75" y="840" width="172.5" height="40" as="geometry" />
        </mxCell>
        <mxCell id="8heaPdWIyd-7Ec6Da3x7-25" style="edgeStyle=orthogonalEdgeStyle;rounded=0;orthogonalLoop=1;jettySize=auto;html=1;entryX=0;entryY=0.5;entryDx=0;entryDy=0;" edge="1" parent="1" source="8heaPdWIyd-7Ec6Da3x7-23" target="8heaPdWIyd-7Ec6Da3x7-13">
          <mxGeometry relative="1" as="geometry">
            <Array as="points">
              <mxPoint x="290" y="935" />
              <mxPoint x="290" y="650" />
            </Array>
          </mxGeometry>
        </mxCell>
        <mxCell id="8heaPdWIyd-7Ec6Da3x7-23" value="count++;" style="rounded=0;whiteSpace=wrap;html=1;" vertex="1" parent="1">
          <mxGeometry x="390" y="910" width="120" height="50" as="geometry" />
        </mxCell>
        <mxCell id="8heaPdWIyd-7Ec6Da3x7-27" value="Конец" style="rounded=1;whiteSpace=wrap;html=1;" vertex="1" parent="1">
          <mxGeometry x="400" y="1030" width="100" height="40" as="geometry" />
        </mxCell>
      </root>
    </mxGraphModel>
  </diagram>
  <diagram id="7oYNU_nbnD0TVHmXQ3U-" name="Case 4 IPv4">
    <mxGraphModel dx="1426" dy="893" grid="1" gridSize="10" guides="1" tooltips="1" connect="1" arrows="1" fold="1" page="1" pageScale="1" pageWidth="827" pageHeight="1169" math="0" shadow="0">
      <root>
        <mxCell id="0" />
        <mxCell id="1" parent="0" />
        <mxCell id="8V-bwpLRBBKV93gCjOht-1" value="BEGIN&#xa;&#xa;&#xa;  # 1) Тестовые данные: IPv4 в десятичном/восьмеричном/шестнадцатеричном виде,&#xa;  #    как с точками, так и без (целые 32-битные числа)&#xa;  textIPv4 ← &quot;&lt;длинная строка из примера&gt;&quot;&#xa;&#xa;&#xa;  PRINT textIPv4&#xa;&#xa;&#xa;  # ---------- A. Поиск адресов с точками ----------&#xa;&#xa;&#xa;  PRINT &quot;\n10-e&quot;&#xa;  DEC_DOTTED_REGEX ←&#xa;    word_boundary&#xa;    ( (25[0-5] | 2[0-4]\d | 1\d{2} | [1-9]\d?) \. )&#xa;    ( (25[0-5] | 2[0-4]\d | 1\d{2} | [0-9]\d?) \. ){2}&#xa;    ( (25[0-5] | 2[0-4]\d | 1\d{2} | [0-9]\d?) )&#xa;    word_boundary&#xa;&#xa;&#xa;  FOR each match m IN REGEX_MATCHES(textIPv4, DEC_DOTTED_REGEX) DO&#xa;      PRINT m.value&#xa;  END FOR&#xa;&#xa;&#xa;  PRINT &quot;\n8-e&quot;&#xa;  OCT_DOTTED_REGEX ←&#xa;    word_boundary&#xa;    ( (37[0-7] | 3[0-6][0-7] | 2[0-7]{2} | 1[0-7]{2} | [0-7]{2}[1-7]) \. )&#xa;    ( (37[0-7] | 3[0-6][0-7] | 2[0-7]{2} | 1[0-7]{2} | [0-7]{2}[0-7]) \. ){2}&#xa;    ( (37[0-7] | 3[0-6][0-7] | 2[0-7]{2} | 1[0-7]{2} | [0-7]{3}) )&#xa;    word_boundary&#xa;&#xa;&#xa;  FOR each match m IN REGEX_MATCHES(textIPv4, OCT_DOTTED_REGEX) DO&#xa;      PRINT m.value&#xa;  END FOR&#xa;&#xa;&#xa;  PRINT &quot;\n16-e&quot;&#xa;  textLower ← TO_LOWER(textIPv4)&#xa;  HEX_DOTTED_REGEX ←&#xa;    ( ([a-f]{2} | [a-f][0-9] | [1-9][a-f] | [0-9]{2}) \. )&#xa;    ( ([a-f]{2} | [a-f][0-9] | [0-9][a-f] | [0-9]{2}) \. ){2}&#xa;    ( ([a-f]{2} | [a-f][0-9] | [0-9][a-f] | [0-9]{2}) whitespace )&#xa;&#xa;&#xa;  FOR each match m IN REGEX_MATCHES(textLower, HEX_DOTTED_REGEX) DO&#xa;      PRINT m.value&#xa;  END FOR&#xa;&#xa;&#xa;  # ---------- B. Поиск &quot;цельных&quot; представлений без точек ----------&#xa;  PRINT &quot;IP-адреса без точки: &quot;&#xa;&#xa;&#xa;  # Числа между пробелами: либо десятичные, либо шестнадцатеричные (с опц. префиксом 0x),&#xa;  # длиной до 8 hex-символов (т.е. до 32 бит)&#xa;  pattern ←&#xa;    ( whitespace (digits+) whitespace )&#xa;    OR&#xa;    ( whitespace (optional &quot;0x&quot;) [0-9A-Fa-f]{1,8} whitespace )&#xa;&#xa;&#xa;  FOR each match m IN REGEX_MATCHES(textLower, pattern) DO&#xa;&#xa;&#xa;      found ← FALSE&#xa;      bases ← [10, 8, 16]&#xa;&#xa;&#xa;      FOR baseX IN bases DO&#xa;          (isValid, detectedBase) ← Check(m.value, baseX)&#xa;&#xa;&#xa;          IF isValid THEN&#xa;              PRINT m.value&#xa;              found ← TRUE&#xa;              BREAK  # из цикла по системам счисления&#xa;          END IF&#xa;      END FOR&#xa;&#xa;&#xa;      # (ничего не выводим, если не прошло валидацию ни в одной базе)&#xa;&#xa;&#xa;  END FOR&#xa;&#xa;&#xa;END" style="text;whiteSpace=wrap;" vertex="1" parent="1">
          <mxGeometry x="100" y="60" width="560" height="1380" as="geometry" />
        </mxCell>
        <mxCell id="8V-bwpLRBBKV93gCjOht-2" value="FUNCTION Check(rawToken, baseX) RETURNS (bool isValid, int detectedBase)&#xa;&#xa;&#xa;  # 1) Нормализовать строку (обрезать пробелы)&#xa;  token ← TRIM(rawToken)&#xa;&#xa;&#xa;  # 2) Попробовать интерпретировать token как целое без знака в системе baseX:&#xa;  #    - для baseX=10: только цифры 0–9&#xa;  #    - для baseX=8 : только 0–7 (без недопустимых вроде &#39;8&#39;/&#39;9&#39;)&#xa;  #    - для baseX=16: [0–9a–f], допустим опциональный префикс 0x/0X&#xa;  #    Если формат не соответствует — вернуть (FALSE, 0)&#xa;&#xa;&#xa;  ok, n ← TRY_PARSE_UNSIGNED(token, baseX)&#xa;  IF NOT ok THEN&#xa;      RETURN (FALSE, 0)&#xa;  END IF&#xa;&#xa;&#xa;  # 3) Проверить диапазон 32-битного IPv4: 0 ≤ n ≤ 0xFFFFFFFF&#xa;  IF 0 ≤ n ≤ 4294967295 THEN&#xa;      RETURN (TRUE, baseX)&#xa;  ELSE&#xa;      RETURN (FALSE, 0)&#xa;  END IF&#xa;END FUNCTION" style="text;whiteSpace=wrap;" vertex="1" parent="1">
          <mxGeometry x="100" y="1460" width="490" height="410" as="geometry" />
        </mxCell>
      </root>
    </mxGraphModel>
  </diagram>
  <diagram id="-eoUU9YG1aswPnAZwMUl" name="Основное тело программы">
    <mxGraphModel dx="1426" dy="893" grid="1" gridSize="10" guides="1" tooltips="1" connect="1" arrows="1" fold="1" page="1" pageScale="1" pageWidth="827" pageHeight="1169" math="0" shadow="0">
      <root>
        <mxCell id="0" />
        <mxCell id="1" parent="0" />
        <mxCell id="3YYLBU4TakaYKq5mbTj5-6" value="" style="edgeStyle=orthogonalEdgeStyle;rounded=0;orthogonalLoop=1;jettySize=auto;html=1;" edge="1" parent="1" source="3YYLBU4TakaYKq5mbTj5-1" target="3YYLBU4TakaYKq5mbTj5-5">
          <mxGeometry relative="1" as="geometry" />
        </mxCell>
        <mxCell id="3YYLBU4TakaYKq5mbTj5-1" value="Начало" style="rounded=1;whiteSpace=wrap;html=1;" vertex="1" parent="1">
          <mxGeometry x="370" y="70" width="120" height="40" as="geometry" />
        </mxCell>
        <mxCell id="3YYLBU4TakaYKq5mbTj5-13" value="" style="edgeStyle=orthogonalEdgeStyle;rounded=0;orthogonalLoop=1;jettySize=auto;html=1;" edge="1" parent="1" source="3YYLBU4TakaYKq5mbTj5-2" target="3YYLBU4TakaYKq5mbTj5-8">
          <mxGeometry relative="1" as="geometry" />
        </mxCell>
        <mxCell id="3YYLBU4TakaYKq5mbTj5-2" value="Приглашение ко вводу" style="shape=parallelogram;perimeter=parallelogramPerimeter;whiteSpace=wrap;html=1;fixedSize=1;" vertex="1" parent="1">
          <mxGeometry x="347" y="250" width="166" height="50" as="geometry" />
        </mxCell>
        <mxCell id="3YYLBU4TakaYKq5mbTj5-7" value="" style="edgeStyle=orthogonalEdgeStyle;rounded=0;orthogonalLoop=1;jettySize=auto;html=1;" edge="1" parent="1" source="3YYLBU4TakaYKq5mbTj5-5" target="3YYLBU4TakaYKq5mbTj5-2">
          <mxGeometry relative="1" as="geometry" />
        </mxCell>
        <mxCell id="3YYLBU4TakaYKq5mbTj5-40" style="edgeStyle=orthogonalEdgeStyle;rounded=0;orthogonalLoop=1;jettySize=auto;html=1;entryX=1;entryY=0.5;entryDx=0;entryDy=0;" edge="1" parent="1" source="3YYLBU4TakaYKq5mbTj5-5" target="3YYLBU4TakaYKq5mbTj5-23">
          <mxGeometry relative="1" as="geometry">
            <Array as="points">
              <mxPoint x="630" y="180" />
              <mxPoint x="630" y="1220" />
            </Array>
          </mxGeometry>
        </mxCell>
        <mxCell id="3YYLBU4TakaYKq5mbTj5-5" value="while (true)" style="rhombus;whiteSpace=wrap;html=1;" vertex="1" parent="1">
          <mxGeometry x="320" y="140" width="220" height="80" as="geometry" />
        </mxCell>
        <mxCell id="3YYLBU4TakaYKq5mbTj5-14" value="" style="edgeStyle=orthogonalEdgeStyle;rounded=0;orthogonalLoop=1;jettySize=auto;html=1;" edge="1" parent="1" source="3YYLBU4TakaYKq5mbTj5-8" target="3YYLBU4TakaYKq5mbTj5-9">
          <mxGeometry relative="1" as="geometry" />
        </mxCell>
        <mxCell id="3YYLBU4TakaYKq5mbTj5-8" value="valueCase = ввод пользователя" style="rounded=0;whiteSpace=wrap;html=1;" vertex="1" parent="1">
          <mxGeometry x="370" y="330" width="120" height="60" as="geometry" />
        </mxCell>
        <mxCell id="3YYLBU4TakaYKq5mbTj5-15" style="edgeStyle=orthogonalEdgeStyle;rounded=0;orthogonalLoop=1;jettySize=auto;html=1;entryX=1;entryY=0.5;entryDx=0;entryDy=0;" edge="1" parent="1" source="3YYLBU4TakaYKq5mbTj5-9" target="3YYLBU4TakaYKq5mbTj5-10">
          <mxGeometry relative="1" as="geometry">
            <Array as="points">
              <mxPoint x="590" y="460" />
              <mxPoint x="590" y="585" />
            </Array>
          </mxGeometry>
        </mxCell>
        <mxCell id="3YYLBU4TakaYKq5mbTj5-34" value="" style="edgeStyle=orthogonalEdgeStyle;rounded=0;orthogonalLoop=1;jettySize=auto;html=1;" edge="1" parent="1" source="3YYLBU4TakaYKq5mbTj5-9" target="3YYLBU4TakaYKq5mbTj5-25">
          <mxGeometry relative="1" as="geometry" />
        </mxCell>
        <mxCell id="3YYLBU4TakaYKq5mbTj5-9" value="case: 1" style="rhombus;whiteSpace=wrap;html=1;" vertex="1" parent="1">
          <mxGeometry x="355" y="420" width="150" height="80" as="geometry" />
        </mxCell>
        <mxCell id="3YYLBU4TakaYKq5mbTj5-16" style="edgeStyle=orthogonalEdgeStyle;rounded=0;orthogonalLoop=1;jettySize=auto;html=1;entryX=1;entryY=0.5;entryDx=0;entryDy=0;" edge="1" parent="1" source="3YYLBU4TakaYKq5mbTj5-10" target="3YYLBU4TakaYKq5mbTj5-11">
          <mxGeometry relative="1" as="geometry">
            <Array as="points">
              <mxPoint x="590" y="585" />
              <mxPoint x="590" y="710" />
            </Array>
          </mxGeometry>
        </mxCell>
        <mxCell id="3YYLBU4TakaYKq5mbTj5-33" value="" style="edgeStyle=orthogonalEdgeStyle;rounded=0;orthogonalLoop=1;jettySize=auto;html=1;" edge="1" parent="1" source="3YYLBU4TakaYKq5mbTj5-10" target="3YYLBU4TakaYKq5mbTj5-26">
          <mxGeometry relative="1" as="geometry" />
        </mxCell>
        <mxCell id="3YYLBU4TakaYKq5mbTj5-10" value="case: 2" style="rhombus;whiteSpace=wrap;html=1;" vertex="1" parent="1">
          <mxGeometry x="355" y="545" width="150" height="80" as="geometry" />
        </mxCell>
        <mxCell id="3YYLBU4TakaYKq5mbTj5-17" style="edgeStyle=orthogonalEdgeStyle;rounded=0;orthogonalLoop=1;jettySize=auto;html=1;entryX=1;entryY=0.5;entryDx=0;entryDy=0;" edge="1" parent="1" source="3YYLBU4TakaYKq5mbTj5-11" target="3YYLBU4TakaYKq5mbTj5-12">
          <mxGeometry relative="1" as="geometry">
            <Array as="points">
              <mxPoint x="590" y="710" />
              <mxPoint x="590" y="830" />
            </Array>
          </mxGeometry>
        </mxCell>
        <mxCell id="3YYLBU4TakaYKq5mbTj5-32" value="" style="edgeStyle=orthogonalEdgeStyle;rounded=0;orthogonalLoop=1;jettySize=auto;html=1;" edge="1" parent="1" source="3YYLBU4TakaYKq5mbTj5-11" target="3YYLBU4TakaYKq5mbTj5-27">
          <mxGeometry relative="1" as="geometry" />
        </mxCell>
        <mxCell id="3YYLBU4TakaYKq5mbTj5-11" value="case: 3" style="rhombus;whiteSpace=wrap;html=1;" vertex="1" parent="1">
          <mxGeometry x="355" y="670" width="150" height="80" as="geometry" />
        </mxCell>
        <mxCell id="3YYLBU4TakaYKq5mbTj5-20" style="edgeStyle=orthogonalEdgeStyle;rounded=0;orthogonalLoop=1;jettySize=auto;html=1;entryX=1;entryY=0.5;entryDx=0;entryDy=0;" edge="1" parent="1" source="3YYLBU4TakaYKq5mbTj5-12" target="3YYLBU4TakaYKq5mbTj5-18">
          <mxGeometry relative="1" as="geometry">
            <Array as="points">
              <mxPoint x="590" y="830" />
              <mxPoint x="590" y="950" />
            </Array>
          </mxGeometry>
        </mxCell>
        <mxCell id="3YYLBU4TakaYKq5mbTj5-31" value="" style="edgeStyle=orthogonalEdgeStyle;rounded=0;orthogonalLoop=1;jettySize=auto;html=1;" edge="1" parent="1" source="3YYLBU4TakaYKq5mbTj5-12" target="3YYLBU4TakaYKq5mbTj5-28">
          <mxGeometry relative="1" as="geometry" />
        </mxCell>
        <mxCell id="3YYLBU4TakaYKq5mbTj5-12" value="case: 4" style="rhombus;whiteSpace=wrap;html=1;" vertex="1" parent="1">
          <mxGeometry x="355" y="790" width="150" height="80" as="geometry" />
        </mxCell>
        <mxCell id="3YYLBU4TakaYKq5mbTj5-21" style="edgeStyle=orthogonalEdgeStyle;rounded=0;orthogonalLoop=1;jettySize=auto;html=1;entryX=1;entryY=0.5;entryDx=0;entryDy=0;" edge="1" parent="1" source="3YYLBU4TakaYKq5mbTj5-18" target="3YYLBU4TakaYKq5mbTj5-19">
          <mxGeometry relative="1" as="geometry">
            <Array as="points">
              <mxPoint x="590" y="950" />
              <mxPoint x="590" y="1070" />
            </Array>
          </mxGeometry>
        </mxCell>
        <mxCell id="3YYLBU4TakaYKq5mbTj5-30" value="" style="edgeStyle=orthogonalEdgeStyle;rounded=0;orthogonalLoop=1;jettySize=auto;html=1;" edge="1" parent="1" source="3YYLBU4TakaYKq5mbTj5-18" target="3YYLBU4TakaYKq5mbTj5-29">
          <mxGeometry relative="1" as="geometry" />
        </mxCell>
        <mxCell id="3YYLBU4TakaYKq5mbTj5-18" value="case: 5" style="rhombus;whiteSpace=wrap;html=1;" vertex="1" parent="1">
          <mxGeometry x="355" y="910" width="150" height="80" as="geometry" />
        </mxCell>
        <mxCell id="3YYLBU4TakaYKq5mbTj5-24" value="" style="edgeStyle=orthogonalEdgeStyle;rounded=0;orthogonalLoop=1;jettySize=auto;html=1;" edge="1" parent="1" source="3YYLBU4TakaYKq5mbTj5-19" target="3YYLBU4TakaYKq5mbTj5-23">
          <mxGeometry relative="1" as="geometry" />
        </mxCell>
        <mxCell id="3YYLBU4TakaYKq5mbTj5-19" value="case: 6" style="rhombus;whiteSpace=wrap;html=1;" vertex="1" parent="1">
          <mxGeometry x="355" y="1030" width="150" height="80" as="geometry" />
        </mxCell>
        <mxCell id="3YYLBU4TakaYKq5mbTj5-23" value="Конец" style="rounded=1;whiteSpace=wrap;html=1;" vertex="1" parent="1">
          <mxGeometry x="370" y="1190" width="120" height="60" as="geometry" />
        </mxCell>
        <mxCell id="3YYLBU4TakaYKq5mbTj5-35" style="edgeStyle=orthogonalEdgeStyle;rounded=0;orthogonalLoop=1;jettySize=auto;html=1;entryX=0;entryY=0.5;entryDx=0;entryDy=0;" edge="1" parent="1" source="3YYLBU4TakaYKq5mbTj5-25" target="3YYLBU4TakaYKq5mbTj5-5">
          <mxGeometry relative="1" as="geometry">
            <Array as="points">
              <mxPoint x="110" y="460" />
              <mxPoint x="110" y="180" />
            </Array>
          </mxGeometry>
        </mxCell>
        <mxCell id="3YYLBU4TakaYKq5mbTj5-25" value="Вывод слов в обратном порядке" style="rounded=0;whiteSpace=wrap;html=1;" vertex="1" parent="1">
          <mxGeometry x="190" y="430" width="120" height="60" as="geometry" />
        </mxCell>
        <mxCell id="3YYLBU4TakaYKq5mbTj5-36" style="edgeStyle=orthogonalEdgeStyle;rounded=0;orthogonalLoop=1;jettySize=auto;html=1;" edge="1" parent="1" source="3YYLBU4TakaYKq5mbTj5-26">
          <mxGeometry relative="1" as="geometry">
            <mxPoint x="110" y="460" as="targetPoint" />
          </mxGeometry>
        </mxCell>
        <mxCell id="3YYLBU4TakaYKq5mbTj5-26" value="Замена цифр на их текстовое значение" style="rounded=0;whiteSpace=wrap;html=1;" vertex="1" parent="1">
          <mxGeometry x="190" y="555" width="120" height="60" as="geometry" />
        </mxCell>
        <mxCell id="3YYLBU4TakaYKq5mbTj5-37" style="edgeStyle=orthogonalEdgeStyle;rounded=0;orthogonalLoop=1;jettySize=auto;html=1;" edge="1" parent="1" source="3YYLBU4TakaYKq5mbTj5-27">
          <mxGeometry relative="1" as="geometry">
            <mxPoint x="110" y="590" as="targetPoint" />
          </mxGeometry>
        </mxCell>
        <mxCell id="3YYLBU4TakaYKq5mbTj5-27" value="Совпадение в тексте по подстроке" style="rounded=0;whiteSpace=wrap;html=1;" vertex="1" parent="1">
          <mxGeometry x="190" y="680" width="120" height="60" as="geometry" />
        </mxCell>
        <mxCell id="3YYLBU4TakaYKq5mbTj5-38" style="edgeStyle=orthogonalEdgeStyle;rounded=0;orthogonalLoop=1;jettySize=auto;html=1;" edge="1" parent="1" source="3YYLBU4TakaYKq5mbTj5-28">
          <mxGeometry relative="1" as="geometry">
            <mxPoint x="110" y="710" as="targetPoint" />
          </mxGeometry>
        </mxCell>
        <mxCell id="3YYLBU4TakaYKq5mbTj5-28" value="Поиск IPv4 через регулярные выражения" style="rounded=0;whiteSpace=wrap;html=1;" vertex="1" parent="1">
          <mxGeometry x="190" y="800" width="120" height="60" as="geometry" />
        </mxCell>
        <mxCell id="3YYLBU4TakaYKq5mbTj5-39" style="edgeStyle=orthogonalEdgeStyle;rounded=0;orthogonalLoop=1;jettySize=auto;html=1;" edge="1" parent="1" source="3YYLBU4TakaYKq5mbTj5-29">
          <mxGeometry relative="1" as="geometry">
            <mxPoint x="110" y="830" as="targetPoint" />
          </mxGeometry>
        </mxCell>
        <mxCell id="3YYLBU4TakaYKq5mbTj5-29" value="Очистка консоли" style="rounded=0;whiteSpace=wrap;html=1;" vertex="1" parent="1">
          <mxGeometry x="190" y="920" width="120" height="60" as="geometry" />
        </mxCell>
      </root>
    </mxGraphModel>
  </diagram>
</mxfile>
